<svg xmlns="http://www.w3.org/2000/svg" viewBox="0 0 512 512" role="img" aria-label="Logo CargoFy">
  <defs>
    <linearGradient id="bg" x1="0" y1="0" x2="1" y2="1">
      <stop offset="0%" stop-color="#1f6b4d"/>
      <stop offset="100%" stop-color="#3a8d62"/>
    </linearGradient>
  </defs>
  <rect width="512" height="512" fill="url(#bg)"/>
  <circle cx="256" cy="256" r="220" fill="#fff" stroke="#0d58b8" stroke-width="10"/>
  <g opacity="0.2" stroke="#8fb1d5" stroke-width="2">
    <circle cx="256" cy="256" r="110" fill="none"/>
    <circle cx="256" cy="256" r="145" fill="none"/>
    <line x1="111" y1="256" x2="401" y2="256"/>
    <line x1="256" y1="111" x2="256" y2="401"/>
  </g>
  <g transform="translate(155 165)">
    <path d="M0 40h140v32H0z" fill="#0d58b8"/>
    <path d="M120 25h38l18 16v31h-56z" fill="#0d58b8"/>
    <circle cx="35" cy="80" r="16" fill="#0d58b8"/><circle cx="124" cy="80" r="16" fill="#0d58b8"/>
    <circle cx="35" cy="80" r="8" fill="#fff"/><circle cx="124" cy="80" r="8" fill="#fff"/>
    <path d="M-16 10l78 22-8 18-78-22z" fill="#0d58b8"/>
    <path d="M-6 30l78 22-8 18-78-22z" fill="#60c141"/>
  </g>
  <text x="128" y="338" font-size="62" font-family="Arial, Helvetica, sans-serif" font-weight="700" fill="#0d58b8">Cargo</text>
  <text x="302" y="338" font-size="62" font-family="Arial, Helvetica, sans-serif" font-weight="700" fill="#60c141">Fy</text>
</svg>
